<svg width="58" height="58" viewBox="0 0 58 58" fill="none" xmlns="http://www.w3.org/2000/svg">
<path opacity="0.4" d="M53.1668 18.8742V36.6367C52.466 36.2983 51.6927 36.0567 50.8227 35.9117L50.0735 35.7908L49.4451 34.4858C48.116 31.7792 45.941 30.2083 43.5002 30.2083C41.0593 30.2083 38.8843 31.7792 37.5552 34.4858L36.9026 35.7908L36.1777 35.9117C33.3018 36.395 31.2235 37.99 30.4743 40.2617C29.7493 42.5575 30.4985 45.0708 32.5527 47.1492L33.3018 47.8983L33.2293 48.1883C32.746 50.3392 32.9393 51.9825 33.3985 53.1667H18.8743C10.0777 53.1667 4.8335 47.9225 4.8335 39.1258V18.8742C4.8335 10.0775 10.0777 4.83333 18.8743 4.83333H39.126C47.9227 4.83333 53.1668 10.0775 53.1668 18.8742Z" fill="#1A78F2"/>
<path d="M46.2066 36.105L46.9799 37.6758C47.3666 38.4492 48.3574 39.1742 49.1791 39.3192L50.2183 39.4883C53.3841 40.02 54.1091 42.34 51.8616 44.6117L50.8949 45.5783C50.2424 46.2308 49.9041 47.4875 50.0975 48.4058L50.2183 48.9858C51.0883 52.8042 49.0582 54.2783 45.7474 52.2725L45.0466 51.8375C44.2008 51.33 42.7991 51.33 41.9532 51.8375L41.2525 52.2725C37.9175 54.2783 35.9116 52.8042 36.7816 48.9858L36.9024 48.4058C37.0957 47.5117 36.7574 46.2308 36.1049 45.5783L35.1383 44.6117C32.8908 42.3158 33.6158 40.02 36.7816 39.4883L37.8208 39.3192C38.6666 39.1742 39.6333 38.4492 40.0199 37.6758L40.7933 36.105C42.2916 33.0842 44.7083 33.0842 46.2066 36.105Z" fill="#1A78F2"/>
<path fill-rule="evenodd" clip-rule="evenodd" d="M38.9796 19.1333C39.7708 19.7466 39.915 20.8851 39.3017 21.6763L33.7084 28.8917C32.2708 30.7099 29.6201 31.0415 27.7709 29.6125L27.7583 29.6028L23.3441 26.1293C23.0714 25.9221 22.691 25.9737 22.4839 26.2408C22.4837 26.2411 22.4841 26.2406 22.4839 26.2408L16.7334 33.7068C16.1226 34.4999 14.9845 34.6476 14.1915 34.0368C13.3984 33.426 13.2507 32.2879 13.8615 31.4948L19.6149 24.0251C21.0502 22.1677 23.7115 21.832 25.5649 23.2641L25.5775 23.2739L29.9917 26.7474C30.2673 26.9567 30.6556 26.9028 30.8612 26.6479L36.4367 19.4554C37.05 18.6642 38.1885 18.52 38.9796 19.1333Z" fill="#1A78F2"/>
</svg>
